<svg width="88" height="34" viewBox="0 0 88 34" fill="none" xmlns="http://www.w3.org/2000/svg">
<path d="M24.2829 19.0847C24.2751 19.0918 24.2689 19.1005 24.2647 19.1102C24.2605 19.1199 24.2583 19.1303 24.2583 19.1409C24.2583 19.1514 24.2605 19.1619 24.2647 19.1715C24.2689 19.1812 24.2751 19.1899 24.2829 19.197C24.8215 19.6233 25.7912 19.8153 27.192 19.7731C27.7861 19.7534 28.3705 19.616 28.9111 19.3688C29.4518 19.1215 29.938 18.7695 30.3415 18.333C30.5718 18.0837 30.8704 17.9078 31.2 17.8271C31.5296 17.7465 31.8756 17.7646 32.195 17.8793L33.8425 18.4683C33.8535 18.4725 33.8634 18.4791 33.8714 18.4878C33.8795 18.4964 33.8854 18.5068 33.8887 18.5181C33.8921 18.5294 33.8928 18.5413 33.8907 18.5529C33.8887 18.5645 33.884 18.5755 33.877 18.585C33.205 19.5086 32.7177 20.1225 32.4153 20.4269C31.6916 21.1715 30.8232 21.7601 29.8635 22.1564C28.9037 22.5526 27.873 22.7482 26.8348 22.7311C24.4653 22.7311 22.4712 21.8123 20.8525 19.9747C19.7469 18.7185 19.0885 17.1313 18.9804 15.4613C18.822 13.0131 19.5857 10.9489 21.2716 9.2688C22.6378 7.90279 24.4574 7.08496 26.3859 6.97005C28.3145 6.85513 30.2182 7.45112 31.737 8.64522C31.9693 8.83724 32.1959 9.0451 32.4167 9.2688C32.5046 9.35809 32.7523 9.63027 33.157 10.0868C33.1697 10.101 33.1768 10.1195 33.1768 10.1386C33.1768 10.1578 33.1697 10.1762 33.157 10.1905L31.7673 11.5946L24.2829 19.0847ZM28.9489 10.3489C28.9571 10.3411 28.9634 10.3317 28.9674 10.3211C28.9714 10.3106 28.9729 10.2993 28.972 10.2881C28.971 10.2769 28.9675 10.2661 28.9618 10.2564C28.956 10.2467 28.9482 10.2385 28.9388 10.2322C28.5846 10.0177 27.8861 9.90965 26.8391 9.90965C25.6365 9.89157 24.4721 10.3324 23.583 11.1424C23.0344 11.6482 22.601 12.2661 22.3122 12.9541C22.0235 13.6422 21.8862 14.3843 21.9096 15.1301C21.9269 16.0158 22.0349 16.6221 22.2293 16.949C22.2354 16.9585 22.2436 16.9664 22.2532 16.9723C22.2628 16.9782 22.2736 16.9818 22.2848 16.9829C22.2961 16.984 22.3074 16.9826 22.3179 16.9787C22.3285 16.9748 22.3381 16.9686 22.3459 16.9605L28.9489 10.3489Z" fill="white"/>
<path d="M48.5351 17.8783L50.1984 18.4731C50.2094 18.4772 50.2193 18.4839 50.2274 18.4925C50.2354 18.5011 50.2413 18.5115 50.2447 18.5228C50.248 18.5341 50.2487 18.546 50.2467 18.5576C50.2446 18.5692 50.24 18.5802 50.233 18.5897C49.5609 19.5133 49.0737 20.1273 48.7712 20.4316C48.0476 21.1762 47.1791 21.7648 46.2194 22.1611C45.2596 22.5574 44.2289 22.753 43.1907 22.7358C40.8222 22.7358 38.8276 21.8166 37.207 19.978C36.1016 18.7222 35.4432 17.1356 35.3349 15.4661C35.1764 13.0188 35.9402 10.9546 37.6261 9.27353C38.3572 8.54048 39.2257 7.95888 40.182 7.56204C41.1382 7.16521 42.1634 6.96094 43.1987 6.96094C44.234 6.96094 45.2591 7.16521 46.2154 7.56204C47.1716 7.95888 48.0401 8.54048 48.7712 9.27353C49.2955 9.84659 49.7837 10.4517 50.233 11.0852C50.24 11.0946 50.2447 11.1055 50.2469 11.117C50.249 11.1286 50.2484 11.1404 50.2452 11.1517C50.242 11.163 50.2363 11.1734 50.2284 11.1821C50.2205 11.1908 50.2108 11.1976 50.1998 11.2019L48.5955 11.7909C48.2691 11.9093 47.9154 11.9315 47.5767 11.855C47.2379 11.7784 46.9283 11.6062 46.6845 11.3588C46.2321 10.8932 45.689 10.5251 45.0889 10.2775C44.4888 10.0298 43.8442 9.90767 43.1951 9.91871C41.6273 9.91871 40.3211 10.5634 39.2765 11.8528C38.7417 12.5136 38.4056 13.3126 38.3073 14.157C38.1153 15.8189 38.5843 17.211 39.7143 18.3334C40.1657 18.798 40.7073 19.1654 41.3059 19.413C41.9045 19.6607 42.5474 19.7833 43.1951 19.7735C43.8463 19.7839 44.4928 19.6615 45.0952 19.4139C45.6976 19.1664 46.2432 18.7987 46.6989 18.3334C46.9268 18.0861 47.2223 17.9113 47.5487 17.8304C47.8751 17.7495 48.218 17.7661 48.5351 17.8783Z" fill="white"/>
<path d="M54.8989 8.04969V2.85516C54.8989 2.8353 54.9068 2.81625 54.9209 2.80221C54.9349 2.78816 54.954 2.78027 54.9738 2.78027H57.6899C57.7098 2.78027 57.7288 2.78816 57.7429 2.80221C57.7569 2.81625 57.7648 2.8353 57.7648 2.85516V8.04969C57.7648 8.06955 57.7727 8.0886 57.7867 8.10265C57.8008 8.11669 57.8198 8.12458 57.8397 8.12458H59.9797C60.1827 8.12439 60.3837 8.16423 60.5713 8.24182C60.7588 8.31941 60.9293 8.43322 61.0728 8.57675C61.2163 8.72028 61.3301 8.8907 61.4077 9.07827C61.4853 9.26583 61.5252 9.46686 61.525 9.66984V10.9155C61.525 10.9354 61.5171 10.9545 61.503 10.9685C61.489 10.9825 61.4699 10.9904 61.4501 10.9904H57.8397C57.8198 10.9904 57.8008 10.9983 57.7867 11.0124C57.7727 11.0264 57.7648 11.0455 57.7648 11.0653V22.2983C57.7648 22.3081 57.7629 22.3179 57.7591 22.327C57.7553 22.336 57.7498 22.3443 57.7429 22.3513C57.7359 22.3582 57.7276 22.3637 57.7186 22.3675C57.7095 22.3713 57.6997 22.3732 57.6899 22.3732H56.6271C56.1688 22.3732 55.7292 22.1911 55.4051 21.867C55.081 21.5429 54.8989 21.1034 54.8989 20.645V11.0682C54.8989 11.0483 54.8911 11.0293 54.877 11.0152C54.863 11.0012 54.8439 10.9933 54.8241 10.9933H52.8194C52.374 10.9914 51.9476 10.813 51.6336 10.4971C51.3197 10.1812 51.1438 9.75373 51.1445 9.30836V8.20523C51.1445 8.19527 51.1465 8.18541 51.1504 8.17623C51.1542 8.16705 51.1599 8.15873 51.167 8.15176C51.1741 8.14479 51.1825 8.1393 51.1918 8.13562C51.201 8.13195 51.2109 8.13015 51.2209 8.13034H54.8313C54.8509 8.12851 54.869 8.11902 54.8817 8.10392C54.8943 8.08882 54.9005 8.06934 54.8989 8.04969Z" fill="white"/>
<path d="M70.7083 6.96071C73.0903 6.96071 75.0887 7.88287 76.7036 9.72719C77.7972 10.9757 78.4509 12.5486 78.5642 14.2045C78.7418 16.8621 77.8398 19.0702 75.8582 20.8291C74.5995 21.9455 73.005 22.6113 71.3262 22.7214C68.6763 22.8923 66.4705 21.974 64.7088 19.9665C63.6117 18.7125 62.9587 17.1317 62.851 15.469C62.6945 13.0227 63.4583 10.9585 65.1423 9.27643C65.8627 8.53083 66.7283 7.9407 67.6856 7.54243C68.6429 7.14416 69.6716 6.94618 70.7083 6.96071ZM67.7057 10.9239C66.4153 11.98 65.7706 13.2896 65.7716 14.8526C65.7707 15.6656 65.9705 16.4663 66.353 17.1836C66.7356 17.901 67.2893 18.5129 67.9649 18.9651C68.6405 19.4173 69.4173 19.6959 70.2263 19.7761C71.0353 19.8564 71.8516 19.7358 72.6029 19.4251C73.3542 19.1144 74.0173 18.6232 74.5333 17.9949C75.0494 17.3667 75.4025 16.6209 75.5613 15.8236C75.7202 15.0262 75.6799 14.202 75.4441 13.424C75.2082 12.6459 74.7841 11.9381 74.2093 11.3632C73.0908 10.238 71.6987 9.76607 70.0329 9.94753C69.1797 10.0434 68.3719 10.3823 67.7057 10.9239Z" fill="white"/>
<path d="M83.7874 9.87172C84.8147 8.56121 86.058 7.85987 87.5173 7.7677C87.5278 7.76712 87.5382 7.76865 87.5481 7.7722C87.5579 7.77576 87.5669 7.78127 87.5746 7.78839C87.5823 7.79552 87.5884 7.80412 87.5927 7.81368C87.5969 7.82324 87.5992 7.83356 87.5994 7.84403V10.6696C87.5994 10.6887 87.5921 10.7071 87.579 10.721C87.5659 10.735 87.5479 10.7433 87.5288 10.7444C86.5198 10.8107 85.7128 11.1467 85.108 11.7525C84.6598 12.1784 84.3005 12.6888 84.0508 13.2544C83.8012 13.82 83.6661 14.4294 83.6534 15.0475V19.581C83.6534 20.3213 83.3594 21.0312 82.836 21.5546C82.3126 22.078 81.6027 22.372 80.8625 22.372C80.8426 22.372 80.8236 22.3641 80.8095 22.3501C80.7955 22.336 80.7876 22.317 80.7876 22.2971V8.20406C80.7876 8.1842 80.7955 8.16515 80.8095 8.1511C80.8236 8.13706 80.8426 8.12917 80.8625 8.12917H83.5786C83.5984 8.12917 83.6175 8.13706 83.6315 8.1511C83.6456 8.16515 83.6534 8.1842 83.6534 8.20406V9.83284C83.6548 9.84784 83.6607 9.86207 83.6702 9.87369C83.6798 9.88531 83.6927 9.89378 83.7071 9.89797C83.7216 9.90217 83.737 9.90191 83.7513 9.89723C83.7656 9.89255 83.7782 9.88366 83.7874 9.87172Z" fill="white"/>
<path d="M8.92158 22.3694L0 3.67366H2.37621C2.81758 3.67463 3.24953 3.80141 3.62142 4.03914C3.99331 4.27686 4.28972 4.61567 4.47591 5.01586L9.45298 15.7736C9.47885 15.83 9.52035 15.8777 9.57255 15.9112C9.62475 15.9447 9.68547 15.9625 9.74749 15.9625C9.80951 15.9625 9.87023 15.9447 9.92243 15.9112C9.97463 15.8777 10.0161 15.83 10.042 15.7736L16.5326 2.73182C16.8492 2.05132 17.3531 1.47516 17.9854 1.07087C18.6177 0.666591 19.3522 0.450946 20.1027 0.449219H21.4435L10.5748 22.3694H8.92158Z" fill="white"/>
<path d="M10.9646 26.1383C11.2586 26.2935 11.5068 26.5229 11.6847 26.8037C11.7058 26.8426 11.7167 26.8862 11.7164 26.9304C11.7161 26.9715 11.7036 27.0117 11.6804 27.0456C11.6545 27.0811 11.6204 27.1098 11.581 27.1291C11.5508 27.141 11.5184 27.1464 11.486 27.145C11.4418 27.1461 11.3981 27.1357 11.3592 27.1147C11.3203 27.0938 11.2875 27.063 11.2642 27.0254C11.1177 26.8031 10.9159 26.6226 10.6785 26.5019C10.4411 26.3812 10.1764 26.3244 9.91045 26.3371C9.47842 26.3371 9.12991 26.435 8.88364 26.6337C8.76207 26.7335 8.66555 26.8604 8.60178 27.0042C8.53801 27.148 8.50878 27.3047 8.51641 27.4618C8.51546 27.6056 8.54786 27.7477 8.61108 27.8769C8.6743 28.0061 8.76661 28.1189 8.88076 28.2064C9.1227 28.4065 9.49858 28.5491 10.0055 28.6384C10.6708 28.7478 11.1576 28.9538 11.4629 29.2519C11.6167 29.4055 11.737 29.5895 11.816 29.792C11.8951 29.9945 11.9313 30.2112 11.9223 30.4285C11.9304 30.7615 11.8467 31.0903 11.6804 31.379C11.519 31.6474 11.2821 31.8623 10.9992 31.9968C10.6803 32.1439 10.3322 32.2168 9.98102 32.2099C9.52984 32.2221 9.08323 32.1169 8.68491 31.9046C8.3341 31.7157 8.04924 31.4243 7.86836 31.0693C7.85331 31.0399 7.84542 31.0073 7.84531 30.9743C7.8444 30.9447 7.84984 30.9152 7.86127 30.8879C7.8727 30.8606 7.88985 30.836 7.91156 30.8159C7.96065 30.7724 8.02466 30.7497 8.09013 30.7525C8.13858 30.7505 8.18651 30.7631 8.22763 30.7888C8.26875 30.8145 8.30114 30.8521 8.32055 30.8965C8.46401 31.1624 8.68641 31.3772 8.95709 31.5114C9.2742 31.6643 9.62336 31.7389 9.97526 31.7289C10.3626 31.7503 10.7444 31.6289 11.0482 31.3876C11.1816 31.2663 11.2862 31.1167 11.3542 30.9498C11.4223 30.7828 11.452 30.6027 11.4413 30.4227C11.4459 30.2551 11.4139 30.0885 11.3475 29.9345C11.2811 29.7805 11.1819 29.6429 11.0568 29.5313C10.8005 29.2965 10.4217 29.1439 9.92053 29.0762C9.41305 29.0244 8.93213 28.824 8.53801 28.5001C8.37897 28.3671 8.25141 28.2004 8.1645 28.0122C8.0776 27.8239 8.03351 27.6187 8.03541 27.4114C8.0302 27.1234 8.11147 26.8405 8.26871 26.5992C8.43132 26.3582 8.65907 26.1684 8.92541 26.0519C9.23402 25.9175 9.56815 25.8516 9.90469 25.8589C10.2765 25.8567 10.6422 25.9531 10.9646 26.1383Z" fill="white"/>
<path d="M13.7979 26.2409C13.8341 26.2757 13.8624 26.3179 13.8808 26.3646C13.8992 26.4113 13.9073 26.4615 13.9045 26.5116C13.9054 26.5607 13.8965 26.6095 13.8782 26.655C13.8598 26.7005 13.8325 26.7419 13.7978 26.7766C13.7631 26.8113 13.7218 26.8386 13.6762 26.8569C13.6307 26.8752 13.582 26.8842 13.5329 26.8832C13.4844 26.8856 13.4359 26.8779 13.3905 26.8605C13.3452 26.8432 13.3039 26.8166 13.2694 26.7824C13.2355 26.7473 13.209 26.7057 13.1915 26.6602C13.1739 26.6147 13.1656 26.5662 13.1671 26.5174C13.1641 26.4668 13.1724 26.4162 13.1916 26.3694C13.2108 26.3225 13.2404 26.2806 13.278 26.2467C13.3505 26.1844 13.4431 26.1506 13.5387 26.1516C13.6332 26.1482 13.7255 26.1801 13.7979 26.2409ZM13.3659 27.8582C13.4138 27.8172 13.4749 27.7947 13.538 27.7947C13.601 27.7947 13.6621 27.8172 13.71 27.8582C13.7319 27.8814 13.7488 27.9088 13.7597 27.9388C13.7706 27.9687 13.7752 28.0006 13.7734 28.0324V31.8891C13.7754 31.9518 13.7527 32.0129 13.71 32.059C13.6765 32.0931 13.6335 32.1164 13.5867 32.1259C13.5398 32.1355 13.4912 32.1308 13.4469 32.1126C13.4027 32.0944 13.365 32.0633 13.3385 32.0235C13.312 31.9837 13.2979 31.9369 13.2982 31.8891V28.0324C13.2969 27.9999 13.3027 27.9675 13.3151 27.9374C13.3276 27.9074 13.3463 27.8803 13.3702 27.8582H13.3659Z" fill="white"/>
<path d="M20.7794 27.9752C21.0292 28.1376 21.2287 28.3666 21.3554 28.6362C21.4966 28.9375 21.5671 29.267 21.5614 29.5997V31.888C21.5634 31.9508 21.5406 32.0119 21.498 32.058C21.4753 32.0808 21.4481 32.0986 21.4181 32.1103C21.388 32.122 21.3559 32.1272 21.3238 32.1257C21.2921 32.1266 21.2606 32.1211 21.2311 32.1095C21.2016 32.0978 21.1749 32.0803 21.1524 32.058C21.1303 32.0357 21.113 32.0091 21.1016 31.9799C21.0902 31.9507 21.0849 31.9194 21.0861 31.888V29.5997C21.1012 29.2387 20.9857 28.8844 20.7607 28.6017C20.6612 28.4772 20.5343 28.3773 20.39 28.3099C20.2456 28.2424 20.0876 28.2092 19.9283 28.2128C19.7618 28.2062 19.5959 28.2353 19.4416 28.2981C19.2874 28.361 19.1484 28.4561 19.034 28.5772C18.9174 28.708 18.8287 28.8611 18.773 29.0272C18.7173 29.1933 18.6958 29.3689 18.7099 29.5435V31.888C18.7119 31.9508 18.6892 32.0119 18.6466 32.058C18.6239 32.0808 18.5966 32.0986 18.5666 32.1103C18.5366 32.122 18.5045 32.1272 18.4723 32.1257C18.4406 32.1266 18.4091 32.1211 18.3796 32.1095C18.3502 32.0978 18.3234 32.0803 18.3009 32.058C18.2788 32.0357 18.2616 32.0091 18.2502 31.9799C18.2388 31.9507 18.2335 31.9194 18.2347 31.888V29.5997C18.2498 29.2387 18.1342 28.8844 17.9092 28.6017C17.81 28.4773 17.6833 28.3775 17.5392 28.3101C17.3951 28.2426 17.2373 28.2094 17.0783 28.2128C16.9123 28.2056 16.7467 28.2331 16.592 28.2936C16.4373 28.354 16.2969 28.446 16.1798 28.5638C16.0627 28.6816 15.9714 28.8225 15.9119 28.9776C15.8524 29.1327 15.8258 29.2984 15.834 29.4643V31.888C15.836 31.9508 15.8132 32.0119 15.7706 32.058C15.7371 32.0921 15.6941 32.1154 15.6472 32.1249C15.6004 32.1345 15.5517 32.1298 15.5075 32.1116C15.4633 32.0933 15.4255 32.0623 15.399 32.0225C15.3725 31.9827 15.3585 31.9359 15.3587 31.888V28.0314C15.357 27.9992 15.3621 27.967 15.3737 27.9369C15.3854 27.9069 15.4034 27.8797 15.4264 27.8571C15.4744 27.8162 15.5354 27.7936 15.5985 27.7936C15.6616 27.7936 15.7226 27.8162 15.7706 27.8571C15.7925 27.8804 15.8093 27.9078 15.8202 27.9377C15.8311 27.9677 15.8358 27.9996 15.834 28.0314V28.3396C15.9794 28.1512 16.1668 27.9993 16.3812 27.896C16.5983 27.7904 16.8368 27.7362 17.0783 27.7376C17.3687 27.7332 17.6545 27.8116 17.902 27.9637C18.146 28.1161 18.3448 28.3309 18.4781 28.5858C18.6147 28.3273 18.8207 28.1119 19.0728 27.9637C19.3314 27.8115 19.6268 27.7332 19.9268 27.7376C20.2281 27.7317 20.5246 27.8143 20.7794 27.9752Z" fill="white"/>
<path d="M26.2536 28.0358C26.5861 28.224 26.8609 28.4993 27.0485 28.8322C27.2385 29.1782 27.3381 29.5665 27.3381 29.9612C27.3381 30.3559 27.2385 30.7443 27.0485 31.0903C26.8604 31.4224 26.5857 31.6971 26.2536 31.8852C25.9078 32.0796 25.5168 32.179 25.1202 32.1732C24.766 32.1782 24.4161 32.095 24.102 31.9313C23.8069 31.7798 23.5581 31.5514 23.382 31.2703V33.7415C23.3849 33.7733 23.381 33.8053 23.3704 33.8355C23.3599 33.8656 23.3429 33.893 23.3208 33.916C23.2986 33.939 23.2718 33.9569 23.2421 33.9685C23.2124 33.9802 23.1805 33.9853 23.1487 33.9835C23.0854 33.9856 23.0239 33.9628 22.9773 33.9201C22.9546 33.8974 22.9369 33.8701 22.9255 33.8401C22.9141 33.8101 22.9091 33.7779 22.911 33.7459V29.918C22.9107 29.5282 23.0146 29.1453 23.212 28.8091C23.4007 28.4812 23.6756 28.2112 24.007 28.0286C24.352 27.8419 24.738 27.7441 25.1303 27.7441C25.5225 27.7441 25.9086 27.8419 26.2536 28.0286V28.0358ZM26.0073 31.5021C26.2689 31.3505 26.4851 31.1318 26.6338 30.8685C26.784 30.5912 26.8627 30.2809 26.8627 29.9655C26.8627 29.6502 26.784 29.3398 26.6338 29.0626C26.398 28.6618 26.0138 28.37 25.5644 28.2506C25.115 28.1312 24.6367 28.1937 24.2331 28.4246C23.9719 28.5772 23.757 28.7977 23.6109 29.0626C23.4634 29.3407 23.3863 29.6507 23.3863 29.9655C23.3863 30.2804 23.4634 30.5904 23.6109 30.8685C23.7571 31.1321 23.9721 31.3512 24.2331 31.5021C24.5046 31.6523 24.8099 31.7311 25.1202 31.7311C25.4305 31.7311 25.7357 31.6523 26.0073 31.5021Z" fill="white"/>
<path d="M28.4354 26.0049C28.4834 25.9639 28.5444 25.9414 28.6075 25.9414C28.6706 25.9414 28.7316 25.9639 28.7796 26.0049C28.8015 26.0281 28.8183 26.0555 28.8292 26.0855C28.8401 26.1155 28.8448 26.1473 28.843 26.1792V30.8149C28.8345 31.0249 28.8881 31.2328 28.9971 31.4126C29.0375 31.4831 29.0957 31.5419 29.166 31.5828C29.2363 31.6238 29.3161 31.6455 29.3974 31.6459H29.5962C29.6234 31.6451 29.6504 31.6505 29.6753 31.6614C29.7002 31.6724 29.7223 31.6887 29.7402 31.7092C29.7788 31.7588 29.7983 31.8207 29.7949 31.8835C29.7969 31.9463 29.7742 32.0073 29.7315 32.0534C29.7089 32.0763 29.6817 32.0942 29.6516 32.1059C29.6216 32.1175 29.5895 32.1227 29.5573 32.1211H29.3989C29.2554 32.1236 29.1134 32.0918 28.9847 32.0284C28.856 31.9651 28.7442 31.8719 28.6586 31.7568C28.4572 31.4853 28.3555 31.1526 28.3706 30.8149V26.1792C28.3684 26.1472 28.3731 26.1151 28.3843 26.0851C28.3954 26.055 28.4129 26.0277 28.4354 26.0049Z" fill="white"/>
<path d="M31.3183 26.2406C31.3545 26.2754 31.3828 26.3176 31.4012 26.3643C31.4196 26.411 31.4276 26.4612 31.4249 26.5113C31.4258 26.5605 31.4169 26.6094 31.3984 26.655C31.38 26.7006 31.3526 26.7421 31.3177 26.7768C31.2829 26.8115 31.2413 26.8388 31.1956 26.857C31.15 26.8753 31.101 26.8841 31.0519 26.8829C31.0034 26.8843 30.9551 26.8756 30.9102 26.8572C30.8653 26.8389 30.8248 26.8113 30.7912 26.7763C30.7572 26.7413 30.7305 26.6998 30.7126 26.6543C30.6948 26.6088 30.6863 26.5602 30.6875 26.5113C30.6848 26.4608 30.6933 26.4103 30.7125 26.3635C30.7317 26.3167 30.761 26.2747 30.7984 26.2406C30.8715 26.1784 30.9645 26.1447 31.0605 26.1456C31.1553 26.1441 31.2471 26.178 31.3183 26.2406ZM30.8862 27.8579C30.9342 27.8169 30.9952 27.7944 31.0583 27.7944C31.1214 27.7944 31.1825 27.8169 31.2304 27.8579C31.2523 27.8811 31.2692 27.9085 31.2801 27.9385C31.291 27.9684 31.2956 28.0003 31.2938 28.0321V31.8888C31.2958 31.9515 31.2731 32.0126 31.2304 32.0587C31.1838 32.1023 31.1222 32.1266 31.0583 32.1266C30.9944 32.1266 30.9329 32.1023 30.8862 32.0587C30.8637 32.0367 30.846 32.0102 30.8343 31.9809C30.8227 31.9517 30.8173 31.9203 30.8186 31.8888V28.0321C30.817 27.9996 30.8227 27.9671 30.8351 27.937C30.8476 27.9068 30.8665 27.8798 30.8906 27.8579H30.8862Z" fill="white"/>
<path d="M33.9827 26.752C33.7922 27.0637 33.7004 27.4256 33.7192 27.7904V27.956H34.7647C34.822 27.956 34.877 27.9787 34.9175 28.0192C34.958 28.0598 34.9807 28.1147 34.9807 28.172C34.9807 28.2293 34.958 28.2842 34.9175 28.3247C34.877 28.3653 34.822 28.388 34.7647 28.388H33.7192V31.8962C33.7201 31.9276 33.7146 31.9589 33.7029 31.9881C33.6913 32.0174 33.6738 32.0439 33.6515 32.0661C33.6279 32.089 33.5999 32.1068 33.5692 32.1184C33.5385 32.1301 33.5057 32.1353 33.4729 32.1338C33.4415 32.1346 33.4103 32.129 33.3811 32.1173C33.3519 32.1056 33.3254 32.0882 33.3031 32.0659C33.2809 32.0437 33.2635 32.0172 33.2518 31.988C33.2401 31.9588 33.2345 31.9276 33.2353 31.8962V28.3808H32.6175C32.589 28.3819 32.5607 28.377 32.5342 28.3666C32.5076 28.3562 32.4836 28.3405 32.4634 28.3203C32.4254 28.278 32.4043 28.2231 32.4043 28.1662C32.4043 28.1093 32.4254 28.0544 32.4634 28.0121C32.4836 27.992 32.5076 27.9763 32.5342 27.9659C32.5607 27.9555 32.589 27.9506 32.6175 27.9517H33.2353V27.7904C33.2353 27.2258 33.3673 26.777 33.6313 26.4438C33.8954 26.1107 34.2914 25.9446 34.8195 25.9456C34.882 25.9427 34.9433 25.9639 34.9908 26.0046C35.0118 26.0244 35.0286 26.0483 35.04 26.0748C35.0515 26.1013 35.0574 26.1298 35.0574 26.1587C35.0574 26.1876 35.0515 26.2161 35.04 26.2426C35.0286 26.2691 35.0118 26.293 34.9908 26.3128C34.9433 26.3535 34.882 26.3747 34.8195 26.3718C34.4393 26.3675 34.1512 26.4942 33.9827 26.752Z" fill="white"/>
<path d="M39.3685 27.9851C39.364 28.0236 39.3533 28.061 39.3368 28.096L36.6755 33.8565C36.6275 33.9525 36.567 34.0005 36.494 34.0005C36.4559 33.999 36.4184 33.9907 36.3831 33.9761C36.2871 33.9338 36.2367 33.8733 36.2319 33.7946C36.2368 33.7562 36.2475 33.7189 36.2636 33.6837L37.0557 31.9728C37.0438 31.9549 37.0332 31.9361 37.024 31.9167L35.2958 28.1147C35.2753 28.0757 35.2644 28.0322 35.2642 27.988C35.2653 27.9477 35.2787 27.9087 35.3026 27.8763C35.3266 27.8438 35.3599 27.8195 35.3981 27.8066C35.4372 27.7859 35.4806 27.7746 35.5248 27.7734C35.5654 27.775 35.6046 27.7887 35.6372 27.8129C35.6698 27.837 35.6944 27.8705 35.7077 27.9088L37.3149 31.4256L38.9307 27.9175C38.9782 27.821 39.0387 27.7734 39.1136 27.7734C39.1518 27.7742 39.1895 27.7825 39.2245 27.7979C39.3196 27.844 39.3685 27.9045 39.3685 27.9851Z" fill="white"/>
<path d="M40.8145 26.2406C40.8511 26.2752 40.8795 26.3173 40.898 26.3641C40.9164 26.4109 40.9243 26.4612 40.9211 26.5114C40.9221 26.5604 40.9131 26.6092 40.8948 26.6547C40.8765 26.7002 40.8491 26.7416 40.8144 26.7763C40.7797 26.811 40.7384 26.8383 40.6929 26.8566C40.6474 26.8749 40.5986 26.8839 40.5495 26.8829C40.5008 26.8844 40.4524 26.8756 40.4072 26.8573C40.3621 26.8389 40.3213 26.8114 40.2874 26.7763C40.2196 26.705 40.1828 26.6097 40.1852 26.5114C40.1821 26.4608 40.1905 26.4102 40.2097 26.3633C40.2289 26.3164 40.2584 26.2745 40.2961 26.2406C40.3686 26.1784 40.4612 26.1446 40.5567 26.1456C40.6515 26.144 40.7434 26.1779 40.8145 26.2406ZM40.3825 27.8579C40.4052 27.8366 40.4319 27.82 40.4611 27.8091C40.4903 27.7982 40.5213 27.7933 40.5524 27.7945C40.5843 27.7916 40.6165 27.7958 40.6466 27.8067C40.6768 27.8177 40.7041 27.8351 40.7268 27.8577C40.7495 27.8804 40.7669 27.9078 40.7778 27.9379C40.7887 27.968 40.7929 28.0002 40.79 28.0321V31.8888C40.7914 31.9199 40.7864 31.951 40.7755 31.9802C40.7647 32.0093 40.748 32.0361 40.7267 32.0587C40.7041 32.0818 40.6769 32.0997 40.6469 32.1114C40.6168 32.1231 40.5846 32.1282 40.5524 32.1264C40.521 32.1272 40.4897 32.1216 40.4606 32.1099C40.4314 32.0983 40.4049 32.0808 40.3826 32.0586C40.3604 32.0363 40.3429 32.0098 40.3313 31.9806C40.3196 31.9515 40.314 31.9202 40.3148 31.8888V28.0321C40.3135 27.9996 40.3193 27.9672 40.3318 27.9371C40.3442 27.9071 40.363 27.88 40.3868 27.8579H40.3825Z" fill="white"/>
<path d="M45.3924 27.9753C45.6928 28.1308 45.9404 28.3718 46.1039 28.668C46.283 29.0023 46.3718 29.3776 46.3616 29.7567V31.8881C46.361 31.9351 46.3467 31.9808 46.3204 32.0197C46.2941 32.0586 46.2571 32.089 46.2137 32.107C46.1704 32.1251 46.1227 32.1301 46.0766 32.1214C46.0304 32.1127 45.9879 32.0907 45.9541 32.058C45.9315 32.0361 45.9138 32.0096 45.9022 31.9803C45.8905 31.951 45.8851 31.9196 45.8864 31.8881V29.7567C45.8864 29.2556 45.7448 28.8715 45.4616 28.6046C45.1594 28.3332 44.7628 28.191 44.357 28.2086C44.0936 28.2053 43.8329 28.2609 43.5937 28.3713C43.3752 28.4696 43.1876 28.6254 43.0508 28.8221C42.9203 29.0091 42.8508 29.232 42.8521 29.4601V31.8838C42.8534 31.9149 42.8484 31.946 42.8376 31.9752C42.8267 32.0044 42.8101 32.0311 42.7887 32.0537C42.7662 32.0768 42.7389 32.0947 42.7089 32.1064C42.6788 32.1181 42.6466 32.1232 42.6144 32.1214C42.583 32.1222 42.5518 32.1166 42.5226 32.1049C42.4934 32.0933 42.4669 32.0758 42.4447 32.0536C42.4224 32.0313 42.405 32.0048 42.3933 31.9756C42.3816 31.9465 42.376 31.9152 42.3768 31.8838V28.0314C42.375 27.9993 42.3801 27.9671 42.3918 27.937C42.4035 27.9069 42.4214 27.8797 42.4445 27.8572C42.4672 27.8359 42.4939 27.8193 42.5231 27.8084C42.5523 27.7976 42.5833 27.7926 42.6144 27.7938C42.6464 27.791 42.6785 27.7951 42.7087 27.8061C42.7388 27.817 42.7662 27.8344 42.7888 27.8571C42.8115 27.8797 42.8289 27.9071 42.8398 27.9372C42.8508 27.9674 42.8549 27.9995 42.8521 28.0314V28.4433C43.0293 28.2225 43.2543 28.0447 43.5102 27.9234C43.7748 27.7982 44.0643 27.7347 44.357 27.7377C44.7164 27.7312 45.0719 27.8128 45.3924 27.9753Z" fill="white"/>
<path d="M50.8352 28.032C51.165 28.216 51.4364 28.489 51.6186 28.8198C51.8112 29.1727 51.908 29.5699 51.8995 29.9719V31.5229C51.9035 31.9252 51.8044 32.3219 51.6114 32.675C51.4272 33.0152 51.1536 33.2986 50.8201 33.4948C50.4867 33.691 50.106 33.7924 49.7191 33.7882C49.3408 33.7946 48.9662 33.7133 48.6246 33.5506C48.3171 33.4009 48.0478 33.1832 47.8369 32.914C47.7977 32.8698 47.7752 32.8133 47.7735 32.7542C47.7738 32.7255 47.7812 32.6974 47.7951 32.6723C47.8089 32.6471 47.8287 32.6258 47.8527 32.6102C47.894 32.5785 47.9447 32.5618 47.9967 32.5627C48.0367 32.5621 48.0762 32.5711 48.112 32.5889C48.1478 32.6067 48.1789 32.6327 48.2027 32.6649C48.3777 32.8776 48.5981 33.0484 48.8478 33.1646C49.1224 33.2901 49.4216 33.3526 49.7234 33.3475C50.0306 33.3517 50.3327 33.2688 50.5947 33.1085C50.8534 32.9506 51.0641 32.725 51.2039 32.4561C51.3544 32.1688 51.4306 31.8485 51.4257 31.5243V31.1758C51.2758 31.4845 51.0371 31.7413 50.7402 31.9132C50.4218 32.0968 50.0592 32.1899 49.6918 32.1825C49.2922 32.1897 48.8977 32.0929 48.5469 31.9016C48.2159 31.719 47.9429 31.4471 47.7591 31.1168C47.5643 30.7675 47.465 30.3731 47.4711 29.9733C47.4638 29.5742 47.5632 29.1805 47.7591 28.8327C47.9482 28.5002 48.2253 28.2262 48.5598 28.0407C48.9031 27.848 49.2909 27.7487 49.6845 27.7526C50.086 27.7429 50.4829 27.8392 50.8352 28.032ZM50.5846 31.5042C50.8454 31.3583 51.0596 31.1416 51.2024 30.8791C51.3482 30.5956 51.4243 30.2813 51.4243 29.9625C51.4243 29.6437 51.3482 29.3294 51.2024 29.0459C51.0604 28.7813 50.8462 28.5625 50.5846 28.4151C50.3081 28.2676 49.9994 28.1904 49.686 28.1904C49.3725 28.1904 49.0639 28.2676 48.7874 28.4151C48.5258 28.5625 48.3115 28.7813 48.1695 29.0459C48.0237 29.3294 47.9477 29.6437 47.9477 29.9625C47.9477 30.2813 48.0237 30.5956 48.1695 30.8791C48.3124 31.1416 48.5266 31.3583 48.7874 31.5042C49.0636 31.6525 49.3724 31.7302 49.686 31.7302C49.9996 31.7302 50.3083 31.6525 50.5846 31.5042Z" fill="white"/>
<path d="M60.9621 32.3187C60.7936 32.3874 60.6047 32.3868 60.4367 32.3169C60.2686 32.2471 60.135 32.1136 60.0649 31.9457L59.7034 31.0528H57.0594L56.6979 31.9457C56.6644 32.0298 56.6145 32.1064 56.5509 32.1709C56.4874 32.2355 56.4116 32.2866 56.328 32.3214C56.2443 32.3562 56.1546 32.3738 56.064 32.3734C55.9735 32.3729 55.8839 32.3543 55.8007 32.3187C55.634 32.2473 55.5024 32.1129 55.4344 31.9448C55.3664 31.7768 55.3676 31.5886 55.4378 31.4215L57.7261 25.9072C57.7811 25.7795 57.873 25.6712 57.99 25.5963C58.1071 25.5213 58.2439 25.4832 58.3828 25.4867C58.5216 25.4821 58.6585 25.5199 58.7753 25.5951C58.8921 25.6702 58.9832 25.779 59.0366 25.9072L61.3408 31.4215C61.4054 31.591 61.4021 31.7789 61.3316 31.9461C61.261 32.1132 61.1286 32.2467 60.9621 32.3187ZM59.1965 29.8071L58.3814 27.7909L57.5663 29.8071H59.1965Z" fill="#6FC7B0"/>
<path d="M62.3774 31.6425V26.206C62.3774 26.0242 62.4497 25.8498 62.5782 25.7213C62.7068 25.5927 62.8811 25.5205 63.0629 25.5205C63.2447 25.5205 63.4191 25.5927 63.5477 25.7213C63.6762 25.8498 63.7484 26.0242 63.7484 26.206V31.6497C63.7484 31.8315 63.6762 32.0058 63.5477 32.1344C63.4191 32.263 63.2447 32.3352 63.0629 32.3352C62.8811 32.3352 62.7068 32.263 62.5782 32.1344C62.4497 32.0058 62.3774 31.8315 62.3774 31.6497V31.6425Z" fill="#65C7C2"/>
<path d="M65.0103 28.9209C65.0103 26.8702 66.5497 25.4531 68.4493 25.4531C70.3488 25.4531 71.8825 26.8702 71.8825 28.9209C71.8825 30.9717 70.343 32.3888 68.445 32.3888C66.5469 32.3888 65.0103 30.9731 65.0103 28.9209ZM70.5159 28.9209C70.5159 27.609 69.5898 26.7032 68.4493 26.7032C67.3087 26.7032 66.3827 27.609 66.3827 28.9209C66.3827 30.2329 67.3072 31.1387 68.4493 31.1387C69.5913 31.1387 70.5159 30.2387 70.5159 28.9209Z" fill="#59C6D0"/>
<path d="M77.4988 27.6303C77.4988 28.8674 76.508 29.7473 75.2854 29.7473H74.5351V31.6425C74.5351 31.8243 74.4628 31.9987 74.3343 32.1272C74.2057 32.2558 74.0314 32.328 73.8496 32.328C73.6677 32.328 73.4934 32.2558 73.3648 32.1272C73.2363 31.9987 73.1641 31.8243 73.1641 31.6425V26.2061C73.1641 26.0242 73.2363 25.8499 73.3648 25.7213C73.4934 25.5928 73.6677 25.5206 73.8496 25.5206H75.2897C76.5008 25.5134 77.4988 26.3933 77.4988 27.6303ZM76.1278 27.6303C76.1279 27.515 76.1048 27.4009 76.0601 27.2946C76.0153 27.1883 75.9497 27.0921 75.8672 27.0116C75.7846 26.931 75.6868 26.8679 75.5795 26.8257C75.4721 26.7836 75.3574 26.7634 75.2422 26.7663H74.5351V28.4944H75.2422C75.3568 28.4963 75.4707 28.4754 75.5772 28.4328C75.6838 28.3902 75.7807 28.3269 75.8625 28.2465C75.9443 28.1661 76.0092 28.0701 76.0535 27.9644C76.0978 27.8586 76.1207 27.745 76.1206 27.6303H76.1278Z" fill="#48C6E5"/>
<path d="M80.926 32.3885C80.0994 32.3985 79.2223 32.1163 78.809 31.8038C78.6877 31.7303 78.5939 31.6189 78.5421 31.4869C78.4903 31.3549 78.4833 31.2095 78.5223 31.0731C78.5613 30.9367 78.644 30.8169 78.7577 30.7322C78.8715 30.6474 79.0099 30.6024 79.1518 30.6041C79.2573 30.6082 79.3606 30.6357 79.4542 30.6848C79.8574 30.8965 80.2808 31.1168 80.8943 31.1384C81.6705 31.1687 82.0839 30.8504 82.0839 30.4832C82.0839 29.3138 78.4331 29.9791 78.4346 27.5194C78.4346 26.098 79.6428 25.4629 80.913 25.4629C81.6653 25.4864 82.3973 25.7128 83.0315 26.1181C83.1437 26.1827 83.2313 26.2828 83.2804 26.4026C83.3295 26.5224 83.3373 26.6551 83.3027 26.7799C83.268 26.9046 83.1928 27.0143 83.089 27.0916C82.9851 27.1689 82.8585 27.2095 82.729 27.2069C82.628 27.2031 82.5293 27.1755 82.441 27.1262C81.9753 26.8387 81.4338 26.6982 80.8871 26.723C80.1915 26.723 79.8085 27.0557 79.8113 27.4431C79.8113 28.6744 83.4692 28.0292 83.4635 30.3896C83.4635 31.7894 82.1587 32.3741 80.9274 32.3841L80.926 32.3885Z" fill="#48C6E5"/>
</svg>
